<?xml version="1.0" standalone="no"?>
<!DOCTYPE svg PUBLIC "-//W3C//DTD SVG 20010904//EN"
 "http://www.w3.org/TR/2001/REC-SVG-20010904/DTD/svg10.dtd">
<svg version="1.0" xmlns="http://www.w3.org/2000/svg"
 width="1024.000000pt" height="1024.000000pt" viewBox="0 0 1024.000000 1024.000000"
 preserveAspectRatio="xMidYMid meet">
<metadata>
Created by potrace 1.14, written by Peter Selinger 2001-2017
</metadata>
<g transform="translate(0.000000,1024.000000) scale(0.100000,-0.100000)"
fill="#000000" stroke="none">
<path d="M4805 9080 c-280 -27 -652 -108 -863 -186 -351 -131 -665 -303 -910
-500 l-82 -66 6 -121 c4 -67 8 -124 10 -126 1 -1 13 4 26 13 12 9 26 16 29 16
8 0 -14 -90 -25 -109 -14 -22 37 -11 106 24 89 44 203 69 275 62 56 -6 123
-38 157 -76 l19 -21 1502 0 1501 0 30 31 c43 46 106 72 179 72 69 0 132 -19
243 -69 41 -19 87 -34 104 -34 30 0 31 1 25 40 -4 28 -1 42 9 48 9 5 17 40 24
102 17 162 23 145 -88 226 -331 242 -550 363 -870 484 -203 77 -514 152 -742
180 -123 15 -549 21 -665 10z m-1335 -624 c0 -2 -7 -7 -16 -10 -8 -3 -12 -2
-9 4 6 10 25 14 25 6z m-181 -133 c-62 -68 -80 -84 -88 -78 -5 3 -12 1 -16 -5
-3 -5 -1 -10 6 -10 10 0 10 -3 0 -12 -11 -10 -14 -10 -18 0 -3 6 -9 12 -14 12
-6 0 -7 -4 -4 -10 3 -5 -2 -10 -12 -10 -22 1 49 68 117 111 56 35 60 36 29 2z
m3636 -48 c22 -18 26 -24 13 -25 -9 0 -23 9 -31 20 -8 11 -17 17 -20 13 -4 -3
-7 -1 -7 5 0 18 12 14 45 -13z"/>
<path d="M7475 8652 c-101 -3 -116 -11 -146 -78 -29 -65 -47 -194 -60 -446
l-13 -238 -113 0 c-109 0 -115 1 -153 29 -42 31 -174 71 -231 71 -41 0 -89
-28 -120 -69 l-23 -31 -1560 0 -1561 1 -20 32 c-11 18 -38 41 -59 51 -35 17
-46 18 -110 8 -106 -17 -143 -30 -180 -63 -33 -28 -36 -29 -144 -29 l-110 0
-6 48 c-3 26 -8 115 -11 197 -7 160 -28 367 -45 426 -6 20 -20 48 -31 63 l-20
26 -414 0 -413 0 -16 -25 c-25 -38 -47 -137 -60 -265 l-11 -115 -83 -3 -82 -3
0 -62 c0 -34 -3 -106 -7 -160 l-6 -98 -270 3 -270 3 -20 -27 c-13 -17 -22 -48
-25 -82 -4 -52 -3 -57 29 -89 l34 -34 258 -5 c141 -3 260 -8 265 -12 4 -4 9
-62 11 -129 2 -77 7 -125 15 -129 6 -4 45 -8 87 -8 l76 0 6 -82 c9 -111 36
-267 52 -299 29 -56 15 -54 449 -50 234 2 406 7 413 12 41 34 69 184 78 421 3
84 8 199 11 256 l6 102 78 0 78 0 7 -50 c9 -65 27 -98 181 -331 140 -212 261
-347 383 -429 34 -23 127 -101 205 -173 145 -134 257 -215 383 -275 40 -18 77
-39 82 -46 6 -7 20 -58 31 -114 22 -109 29 -128 125 -332 54 -115 69 -159 100
-300 20 -91 42 -189 49 -217 7 -29 12 -53 10 -53 -1 0 -26 20 -55 45 -105 89
-320 200 -438 226 -30 6 -95 9 -145 7 -107 -4 -157 -28 -224 -103 -52 -59 -67
-116 -66 -240 2 -233 116 -457 370 -735 83 -91 219 -264 257 -329 l18 -30 -83
-84 c-62 -62 -104 -95 -167 -128 -103 -55 -158 -100 -177 -149 -14 -34 -20
-39 -59 -44 -23 -4 -233 -6 -466 -5 -233 1 -846 1 -1361 0 l-938 -1 0 -1150 0
-1150 1103 -1 c606 0 2423 0 4037 0 l2935 -1 3 1156 2 1156 -1439 0 -1438 0
-6 29 c-10 47 -51 85 -148 136 -50 27 -108 63 -129 79 -37 30 -140 149 -140
162 0 9 127 191 174 249 23 27 82 97 131 155 109 127 172 215 225 313 107 197
134 407 73 559 -20 51 -113 135 -165 149 -58 15 -184 12 -246 -6 -136 -41
-296 -123 -419 -216 -56 -43 -65 -47 -59 -27 3 13 17 93 31 178 36 220 45 251
129 417 80 159 111 247 122 341 3 33 9 64 13 69 3 6 55 33 114 61 137 65 211
117 350 251 62 59 141 127 177 151 118 79 244 218 364 400 60 91 128 194 152
230 49 74 77 145 70 175 -5 20 0 21 93 22 l98 2 6 -232 c10 -358 28 -485 74
-532 25 -24 29 -25 169 -25 109 0 144 3 144 13 0 9 2 9 8 0 9 -13 519 -22 541
-9 27 17 51 95 76 247 14 85 28 163 30 175 4 20 11 21 87 20 l83 -1 3 133 3
132 258 0 c254 0 258 0 279 23 48 51 50 134 5 188 l-25 29 -259 0 -259 0 -1
113 c0 61 -3 130 -7 152 l-7 40 -82 5 c-45 3 -84 8 -86 10 -3 3 -10 51 -16
108 -15 141 -39 238 -64 267 l-22 24 -315 3 c-173 2 -355 2 -405 0z m-5319
-139 c-26 -218 -36 -378 -36 -618 0 -377 25 -620 86 -827 3 -10 1 -18 -5 -18
-37 0 -92 393 -111 795 -9 190 -31 389 -45 403 -3 3 -5 -21 -6 -54 0 -32 -5
-81 -9 -109 -6 -34 -7 -11 -4 75 3 69 3 122 0 119 -3 -3 -19 -68 -36 -144 -17
-77 -35 -149 -40 -160 -5 -13 -9 51 -9 179 -1 204 19 393 43 408 6 4 49 8 95
8 l84 0 -7 -57z m284 50 c0 -3 -4 -34 -10 -67 -5 -34 -17 -133 -26 -221 -35
-334 6 -956 76 -1160 14 -40 16 -54 6 -46 -20 17 -54 143 -70 266 -14 107 -34
340 -56 675 -6 91 -15 183 -20 205 -5 22 -10 58 -11 80 l-2 40 -8 -45 c-4 -25
-8 -72 -10 -105 l-2 -60 -10 85 c-11 96 -14 93 -47 -52 -12 -54 -27 -101 -33
-105 -20 -12 10 437 33 495 9 20 16 22 100 22 49 0 90 -3 90 -7z m260 -25 c-1
-18 -7 -62 -15 -98 -24 -109 -39 -347 -25 -399 8 -29 14 -40 20 -32 4 7 10
-85 13 -205 4 -133 12 -244 21 -284 10 -47 14 -56 15 -33 2 58 19 44 26 -22 8
-68 -8 -346 -20 -366 -15 -24 -25 20 -35 162 -6 79 -18 194 -26 254 -9 61 -19
211 -24 335 -8 224 -26 375 -40 335 -6 -17 -8 -16 -14 9 -4 16 -2 33 4 41 6 8
10 26 7 42 -4 27 -4 27 -6 -4 -1 -40 -21 -54 -22 -16 0 17 -11 -7 -28 -62 -30
-97 -52 -147 -58 -129 -8 23 16 450 26 477 10 27 12 27 96 27 l85 0 0 -32z
m4925 22 c29 -46 62 -480 37 -480 -12 0 -22 29 -56 164 -14 54 -27 101 -30
104 -4 3 -6 -39 -6 -94 0 -54 -5 -106 -10 -114 -7 -11 -10 -5 -11 25 -1 24 -3
30 -5 15 -2 -14 -11 -56 -19 -95 -8 -38 -19 -171 -25 -295 -10 -243 -28 -407
-65 -593 -36 -184 -49 -174 -58 46 -4 84 -9 184 -11 222 l-5 70 13 -65 c8 -36
17 -92 22 -125 l7 -60 13 65 c20 97 32 215 44 405 6 94 15 201 21 239 16 113
11 250 -15 396 -14 74 -28 145 -31 158 -7 22 -6 22 88 22 53 0 99 -4 102 -10z
m276 -32 c20 -75 40 -482 22 -465 -3 4 -19 57 -34 119 l-29 113 4 -75 c4 -78
-1 -66 -22 45 l-10 50 -1 -70 c0 -39 -8 -124 -16 -190 -7 -66 -21 -205 -30
-310 -33 -396 -76 -681 -108 -713 -13 -12 -14 -8 -6 32 4 25 15 71 23 103 42
167 76 523 76 802 0 200 -13 354 -46 559 l-7 42 86 0 86 0 12 -42z m261 7 c21
-74 38 -253 37 -400 -1 -169 -5 -172 -34 -20 -17 85 -44 208 -48 212 -8 7 -47
-366 -98 -917 -14 -161 -40 -317 -55 -337 -12 -17 -13 -16 -14 9 0 15 4 38 10
52 38 101 82 655 74 926 -5 150 -33 427 -50 482 -6 19 30 26 120 24 46 -1 50
-3 58 -31z m-5408 -293 c-15 -118 -32 -198 -40 -190 -2 3 1 65 6 139 14 182
25 235 42 190 4 -13 1 -71 -8 -139z m4651 -4 c0 -85 -4 -131 -12 -139 -9 -9
-13 -3 -19 27 -11 53 -10 246 0 263 19 30 30 -26 31 -151z m712 -85 c-3 -10
-5 -4 -5 12 0 17 2 24 5 18 2 -7 2 -21 0 -30z m279 -135 c-4 -84 -10 -156 -12
-160 -3 -5 -16 -8 -28 -8 -20 0 -25 6 -30 43 -4 33 -9 233 -7 270 1 4 20 7 42
7 l42 0 -7 -152z m-6560 70 c-4 -40 -7 -107 -9 -148 -1 -41 -6 -78 -10 -81
-14 -10 -55 2 -61 18 -3 8 -3 75 1 149 l6 134 39 0 40 0 -6 -72z m1552 -180
c25 -25 13 -46 -40 -71 -194 -91 -218 -98 -218 -70 0 29 30 52 133 104 103 52
108 54 125 37z m3455 -37 c84 -42 127 -78 127 -108 0 -17 -15 -13 -115 29 -76
32 -135 72 -135 92 0 13 21 38 30 34 3 -2 44 -23 93 -47z m-5263 -10 c66 -5
75 -8 78 -27 3 -21 1 -21 -240 -19 -222 3 -243 4 -246 20 -2 10 2 21 10 26 15
10 282 10 398 0z m7228 2 l142 -6 0 -25 0 -25 -82 6 c-46 4 -149 7 -230 7
-140 0 -148 1 -148 19 0 16 8 21 43 24 79 7 132 7 275 0z m-2126 -129 c25 -23
55 -47 67 -54 22 -11 22 -12 4 -32 -27 -31 -180 -143 -328 -240 -71 -47 -166
-119 -210 -160 -44 -41 -102 -87 -130 -103 -27 -16 -88 -54 -135 -86 -80 -54
-90 -58 -172 -68 -82 -11 -170 -35 -217 -61 -12 -6 -47 -32 -78 -57 l-56 -46
-56 9 -56 9 -3 40 c-3 34 1 43 27 65 24 19 33 38 41 79 16 85 13 121 -9 121
-17 0 -18 9 -17 113 1 99 -2 117 -23 157 -32 62 -77 107 -136 138 -43 23 -62
26 -140 26 -80 0 -97 -3 -149 -29 -117 -59 -174 -159 -163 -289 4 -39 9 -81
13 -93 4 -16 1 -23 -16 -28 -21 -7 -22 -11 -17 -79 7 -88 12 -103 47 -121 21
-11 28 -23 33 -57 3 -23 3 -46 1 -50 -3 -4 -33 -8 -68 -8 -59 0 -64 2 -101 41
-76 77 -141 104 -293 118 l-88 8 -149 98 c-83 54 -179 125 -215 157 -36 33
-135 106 -220 163 -128 85 -330 244 -330 260 0 2 15 11 33 20 19 9 48 30 65
48 l31 32 1584 0 1584 0 45 -41z m-3229 -262 c80 -60 186 -138 237 -172 50
-35 113 -88 138 -117 33 -39 72 -67 137 -103 115 -62 181 -120 239 -213 67
-108 67 -115 0 -65 -33 24 -133 88 -223 143 -146 90 -282 198 -267 213 3 2 21
-3 40 -12 19 -9 47 -16 63 -16 25 1 22 4 -27 30 -30 16 -84 38 -121 50 -36 11
-87 34 -113 51 -73 49 -276 283 -276 319 0 20 21 7 173 -108z m3372 91 c-32
-50 -155 -191 -214 -246 -66 -61 -138 -99 -231 -123 -36 -9 -80 -25 -98 -36
-18 -11 -36 -17 -40 -13 -12 12 120 128 234 207 60 41 160 111 222 156 121 87
158 103 127 55z m-475 -456 c-31 -29 -125 -94 -210 -146 -85 -52 -188 -118
-227 -148 -40 -29 -73 -50 -73 -47 0 18 68 131 103 170 80 91 242 186 337 199
30 4 62 11 70 16 8 5 24 8 35 8 15 0 8 -11 -35 -52z m-530 -195 c0 -5 -11 -19
-25 -32 -43 -40 -113 -154 -192 -311 -76 -151 -76 -152 -75 -228 1 -42 11
-125 22 -185 23 -118 21 -149 -5 -64 -29 97 -43 231 -50 461 -7 214 -6 229 11
249 30 32 109 68 208 94 105 27 106 27 106 16z m-1419 -18 c96 -18 166 -50
203 -94 25 -30 26 -36 21 -108 -3 -43 -12 -169 -20 -282 -14 -202 -27 -298
-46 -348 -18 -47 -20 -14 -4 77 9 51 17 131 18 179 2 84 0 91 -41 177 -60 126
-143 271 -197 344 -25 33 -45 63 -45 66 0 8 23 6 111 -11z m372 -243 c15 -214
53 -337 131 -417 79 -81 149 -92 243 -38 46 27 79 65 113 134 31 61 46 121 70
273 20 132 24 147 41 147 17 0 10 -210 -10 -307 -44 -212 -148 -335 -297 -350
-47 -5 -63 -2 -117 25 -72 36 -92 55 -141 135 -46 77 -66 170 -73 340 -5 113
-4 141 8 148 8 5 17 9 20 9 3 0 9 -45 12 -99z m-620 -1044 c82 -41 111 -68
162 -152 27 -46 85 -195 85 -219 0 -2 -46 42 -102 98 -190 189 -328 225 -451
117 -20 -18 -41 -48 -47 -66 -14 -43 -24 -44 -40 -5 -18 44 -7 132 24 184 23
39 43 53 116 80 8 3 53 4 98 2 71 -3 95 -9 155 -39z m2123 12 c54 -33 84 -94
84 -168 0 -34 -5 -71 -11 -83 -10 -18 -12 -17 -31 21 -26 52 -91 109 -135 117
-56 11 -123 -4 -192 -42 -88 -48 -140 -93 -192 -164 -24 -33 -45 -56 -47 -50
-6 17 44 161 74 214 36 64 81 108 140 137 107 52 243 60 310 18z m-2222 -420
c77 -25 161 -89 204 -155 31 -46 62 -129 76 -204 7 -35 7 -35 -11 -14 -10 12
-38 49 -62 83 -25 34 -102 118 -173 187 -71 68 -122 124 -114 124 9 0 44 -9
80 -21z m2022 -61 c-94 -87 -236 -250 -263 -301 -42 -81 -18 66 26 159 49 104
109 157 223 200 109 40 111 31 14 -58z m-391 -500 c-48 -165 -112 -294 -175
-350 -22 -20 -45 -49 -51 -65 -24 -60 -40 -188 -34 -260 l7 -73 -305 0 c-167
0 -331 -3 -365 -6 l-60 -7 5 119 c7 153 -12 215 -85 284 -29 27 -66 79 -94
131 -50 92 -108 246 -108 284 0 22 3 21 64 -20 75 -50 147 -79 237 -95 75 -14
151 -7 266 23 l83 21 72 -23 c187 -61 383 -26 523 93 22 19 41 33 42 32 2 -1
-8 -41 -22 -88z m-4165 -1059 c0 -6 -9 -22 -20 -36 -11 -15 -18 -34 -15 -47 3
-11 14 -109 25 -216 16 -161 58 -550 87 -813 3 -31 8 -56 10 -54 2 2 10 80 18
173 9 93 29 266 45 384 16 118 39 293 51 388 l21 173 -20 22 -21 22 133 1 c72
1 143 5 156 9 l24 8 -18 -29 c-17 -24 -18 -41 -12 -138 3 -61 15 -174 26 -251
11 -77 36 -264 55 -415 19 -151 37 -279 39 -285 7 -20 16 45 51 375 20 184 45
411 56 504 l21 169 -22 30 -22 29 58 -6 c33 -3 99 -2 147 2 49 4 90 5 92 1 3
-3 -6 -20 -19 -38 -17 -23 -27 -56 -35 -114 -13 -92 -74 -584 -97 -777 -8 -69
-28 -224 -44 -345 -16 -121 -35 -262 -41 -312 l-12 -93 -112 0 c-63 0 -120 -2
-127 -5 -11 -4 -17 30 -32 167 -9 95 -24 215 -32 266 -8 52 -19 126 -24 164
-10 68 -50 411 -50 425 0 4 -4 3 -9 -3 -5 -5 -19 -92 -31 -194 -26 -224 -55
-452 -75 -579 -8 -52 -17 -127 -21 -167 l-7 -72 -131 -4 c-72 -3 -132 -4 -133
-4 -1 1 -9 76 -18 166 -23 241 -44 439 -60 575 -23 186 -73 642 -80 720 -11
135 -17 156 -47 191 l-30 34 59 -5 c45 -5 180 3 236 14 4 0 7 -4 7 -10z m1398
-3 c78 4 142 4 142 1 0 -3 -5 -18 -10 -32 -12 -32 -2 -128 40 -395 84 -531
116 -742 150 -1003 11 -86 29 -180 40 -208 11 -27 20 -51 20 -53 0 -1 -28 1
-62 6 -35 5 -98 7 -140 5 l-77 -5 10 26 c7 17 4 74 -7 184 l-18 158 -113 2
c-62 0 -118 1 -125 2 -8 1 -20 -53 -36 -154 -22 -142 -23 -157 -8 -182 l15
-28 -93 0 c-51 0 -115 -3 -141 -7 l-47 -6 15 29 c8 16 17 40 20 54 10 40 56
350 78 520 19 156 53 377 110 719 36 223 46 335 30 345 -6 4 -11 13 -11 21 0
10 8 11 38 4 20 -5 101 -6 180 -3z m2137 -15 c63 -28 119 -82 152 -146 23 -44
27 -68 35 -204 4 -85 7 -155 6 -156 -2 -1 -54 0 -115 3 l-113 5 0 122 0 123
-35 31 c-41 36 -96 41 -146 15 -57 -29 -57 -29 -58 -628 0 -601 -1 -590 59
-621 54 -28 96 -20 145 28 l45 42 2 218 3 219 -57 -4 -57 -3 -3 102 -3 102
178 3 c97 2 177 1 177 -2 0 -3 -4 -19 -9 -37 -5 -17 -12 -175 -16 -350 -3
-183 -11 -334 -17 -356 -26 -86 -139 -164 -277 -189 -136 -25 -293 41 -348
147 -41 77 -43 109 -43 716 0 493 2 593 15 636 26 88 124 179 220 204 59 16
206 4 260 -20z m2261 7 c-55 -77 -51 -6 -51 -823 0 -782 0 -791 42 -837 9 -10
14 -20 12 -22 -2 -2 -33 1 -69 6 -36 5 -100 7 -142 5 -43 -3 -78 -3 -78 0 0 3
8 20 18 37 18 29 19 65 19 546 l1 515 -18 -135 c-10 -74 -30 -184 -43 -245
-14 -60 -28 -128 -31 -150 -11 -63 -75 -395 -87 -445 l-10 -45 -87 2 -87 2
-22 128 c-13 70 -37 202 -54 293 -17 91 -48 262 -69 380 l-37 215 1 -520 c1
-483 2 -523 19 -548 22 -34 14 -52 -15 -36 -13 7 -62 10 -129 7 -60 -2 -109 0
-109 5 0 4 8 19 17 33 15 24 17 94 17 796 1 715 0 773 -16 799 -10 16 -22 29
-28 29 -5 0 -10 3 -10 8 0 4 74 8 164 9 l163 3 13 -78 c6 -42 32 -174 56 -292
25 -118 56 -276 69 -350 14 -74 34 -179 45 -234 11 -54 20 -101 21 -105 1 -3
9 35 18 84 49 254 164 806 177 849 8 27 14 67 14 88 l0 37 138 4 c75 1 148 4
161 5 23 2 23 1 7 -20z m476 10 l308 -3 0 -113 c0 -111 0 -112 -22 -108 -13 3
-103 8 -200 11 l-178 6 0 -261 0 -261 143 2 142 1 3 -103 3 -104 -143 3 -143
4 3 -273 3 -274 194 4 195 3 0 -79 c0 -43 4 -93 10 -112 l9 -34 -312 7 c-216
5 -322 4 -341 -4 -16 -6 -31 -8 -33 -6 -3 3 9 25 26 50 l31 45 0 765 0 765
-30 34 c-37 43 -38 50 -2 43 15 -3 165 -7 334 -8z m905 -9 c76 -28 154 -105
177 -177 10 -29 20 -104 24 -177 l7 -128 -74 7 c-41 3 -91 6 -113 6 l-38 0 0
94 c0 112 -9 139 -52 166 -54 33 -112 24 -150 -24 -15 -18 -18 -43 -18 -159 0
-126 2 -142 22 -170 12 -18 90 -102 173 -187 148 -151 210 -230 233 -299 19
-54 16 -375 -4 -440 -40 -137 -204 -228 -363 -202 -124 20 -206 77 -253 176
-27 58 -28 66 -28 213 l0 152 64 0 c35 0 84 3 110 6 l46 7 0 -139 c0 -117 3
-142 18 -160 24 -31 55 -44 100 -44 33 0 45 6 71 35 l31 36 0 152 c0 130 -3
156 -19 182 -10 17 -91 107 -180 200 -89 93 -178 193 -197 221 -46 66 -55 138
-45 329 6 112 12 148 29 181 21 41 81 102 124 125 81 44 213 51 305 18z
m-4764 -27 c72 -36 103 -68 139 -148 22 -47 23 -60 23 -309 l0 -260 -27 -46
c-15 -25 -48 -65 -75 -90 -26 -24 -47 -46 -46 -49 1 -3 15 -63 32 -135 42
-181 138 -520 161 -573 l20 -44 -23 6 c-12 3 -73 6 -134 6 l-113 0 0 33 c0 17
-21 111 -45 207 -25 96 -60 237 -77 313 l-32 138 -42 -3 -43 -3 -3 -317 c-3
-316 -3 -317 20 -341 12 -13 22 -25 22 -28 0 -3 -54 -3 -119 -1 -71 3 -132 0
-150 -6 -38 -13 -40 -3 -8 41 25 37 24 -43 20 983 l-3 601 -25 27 c-14 15 -25
29 -25 32 0 3 109 4 243 2 l242 -3 68 -33z m2026 17 c-13 -26 -7 -102 22 -294
11 -71 29 -191 40 -265 10 -74 26 -172 34 -218 14 -73 40 -272 91 -682 9 -76
23 -140 35 -163 10 -21 19 -39 19 -41 0 -2 -60 -3 -133 -2 l-133 1 4 45 c2 25
-3 106 -12 180 -9 74 -16 139 -16 143 0 4 -55 6 -122 5 l-123 -3 -16 -125 c-9
-69 -19 -138 -23 -155 -4 -19 -1 -41 9 -59 8 -15 15 -29 15 -30 0 0 -63 -1
-140 -1 -77 0 -140 1 -140 1 0 1 9 21 19 45 11 24 27 100 36 169 35 277 73
521 197 1279 20 125 20 136 5 163 l-16 28 180 0 180 0 -12 -21z"/>
<path d="M3537 7662 c-16 -7 -15 -10 10 -33 27 -24 144 -103 250 -168 29 -18
71 -50 93 -72 24 -24 46 -37 53 -33 7 4 55 38 107 75 118 83 206 132 335 188
55 24 102 45 104 47 8 7 -934 3 -952 -4z m283 -92 c0 -5 -2 -10 -4 -10 -3 0
-8 5 -11 10 -3 6 -1 10 4 10 6 0 11 -4 11 -10z"/>
<path d="M5711 7661 l-73 -6 78 -33 c121 -52 290 -148 378 -214 l78 -60 32 30
c28 27 119 92 319 227 37 25 67 50 67 55 0 11 -745 11 -879 1z"/>
<path d="M4770 4257 c0 -3 11 -29 24 -58 14 -29 28 -80 31 -113 l7 -61 236 3
c131 2 238 5 240 7 1 1 9 42 18 91 8 48 20 97 26 107 9 18 8 19 -18 14 -97
-21 -465 -15 -546 9 -10 3 -18 3 -18 1z"/>
<path d="M2865 3155 c-3 -33 -11 -103 -16 -155 -8 -80 -23 -208 -44 -380 -2
-19 -7 -63 -10 -97 l-7 -63 92 0 92 0 -5 58 c-3 31 -19 158 -35 282 -17 124
-33 261 -37 305 -10 106 -21 125 -30 50z"/>
<path d="M3647 3360 c-1 -3 -1 -133 1 -289 l3 -284 85 6 c76 4 89 8 115 33
l29 28 0 222 c0 221 0 223 -24 251 -23 26 -31 28 -116 33 -51 3 -93 3 -93 0z"/>
<path d="M5772 3074 c-7 -71 -26 -235 -43 -364 -16 -129 -29 -238 -29 -242 0
-5 41 -8 91 -8 l91 0 -6 28 c-10 45 -76 587 -77 628 -3 100 -15 81 -27 -42z"/>
<path d="M7040 7430 c-63 -94 -137 -201 -164 -238 -52 -70 -244 -268 -285
-293 l-24 -15 61 -134 c34 -74 70 -163 81 -197 58 -181 97 -455 89 -631 l-3
-82 28 0 c20 0 27 5 27 20 0 11 5 20 10 20 6 0 10 -9 10 -21 0 -12 4 -17 11
-13 6 3 39 6 74 6 55 0 62 2 50 14 -15 16 -35 19 -35 5 0 -4 -11 -6 -25 -3
-24 4 -36 32 -15 32 6 0 10 -4 10 -10 0 -5 7 -10 15 -10 9 0 12 6 9 15 -9 23
15 18 36 -7 l18 -22 7 32 c8 38 20 41 29 7 6 -24 26 -36 26 -15 0 6 5 10 10
10 6 0 10 -7 10 -15 0 -8 -4 -15 -10 -15 -5 0 -10 -5 -10 -11 0 -6 23 -9 58
-9 31 1 294 -1 583 -6 l526 -7 -4 59 c-2 32 -10 115 -18 184 -8 69 -17 183
-21 255 -4 71 -10 143 -15 159 -5 17 -9 40 -8 51 2 65 67 -253 94 -458 46
-354 -12 -828 -151 -1244 -92 -275 -207 -505 -363 -723 -34 -47 -61 -88 -61
-92 0 -5 45 -9 100 -10 55 -1 106 -2 114 -2 25 -2 172 240 266 435 27 57 78
193 114 302 143 435 203 857 176 1237 -14 209 -47 432 -85 580 -15 59 -96 331
-101 338 -1 2 -19 -6 -40 -17 -25 -14 -57 -21 -93 -21 -41 0 -51 -3 -43 -12
10 -13 43 -146 41 -170 0 -7 -7 4 -14 25 -8 21 -23 50 -33 65 -10 15 -23 39
-30 55 -8 18 -19 27 -35 27 -223 0 -676 14 -696 21 -56 21 -126 113 -144 189
-13 55 -26 211 -28 335 -4 224 4 222 -129 25z m-280 -770 c0 -5 -2 -10 -4 -10
-3 0 -8 5 -11 10 -3 6 -1 10 4 10 6 0 11 -4 11 -10z m50 -86 c0 -3 -7 -12 -15
-20 -16 -17 -18 -14 -9 10 6 15 24 23 24 10z m0 -205 c0 -5 -4 -9 -10 -9 -5 0
-10 7 -10 16 0 8 5 12 10 9 6 -3 10 -10 10 -16z m40 -349 c0 -4 -6 -10 -14
-13 -10 -4 -12 0 -9 14 5 18 23 18 23 -1z m140 -25 c0 -8 -4 -15 -10 -15 -5 0
-10 7 -10 15 0 8 5 15 10 15 6 0 10 -7 10 -15z m-150 -20 c7 -9 8 -15 2 -15
-5 0 -12 7 -16 15 -3 8 -4 15 -2 15 2 0 9 -7 16 -15z m185 5 c3 -5 1 -10 -4
-10 -6 0 -11 5 -11 10 0 6 2 10 4 10 3 0 8 -4 11 -10z m-85 -30 c-8 -5 -17 -7
-19 -4 -3 3 1 9 9 14 8 5 17 7 19 4 3 -3 -1 -9 -9 -14z m725 10 c3 -5 1 -10
-4 -10 -6 0 -11 5 -11 10 0 6 2 10 4 10 3 0 8 -4 11 -10z m-575 -10 c0 -5 -4
-10 -10 -10 -5 0 -10 5 -10 10 0 6 5 10 10 10 6 0 10 -4 10 -10z m-197 -35
c-3 -9 -8 -14 -10 -11 -3 3 -2 9 2 15 9 16 15 13 8 -4z m-76 -52 c-3 -10 -5
-2 -5 17 0 19 2 27 5 18 2 -10 2 -26 0 -35z m333 32 c5 3 10 -1 10 -10 0 -24
-44 -15 -49 10 -3 17 -1 17 12 6 9 -7 21 -10 27 -6z m81 -4 c4 7 11 10 14 7
11 -11 -5 -28 -26 -28 -19 0 -25 11 -12 24 4 4 9 2 12 -5 2 -8 6 -8 12 2z"/>
<path d="M2966 7509 c-3 -35 -10 -136 -16 -225 -10 -163 -28 -259 -57 -304
-22 -34 -64 -79 -88 -93 -14 -8 -129 -14 -365 -17 l-345 -5 -38 -115 c-95
-286 -135 -496 -144 -744 l-6 -169 706 4 707 4 0 156 c0 142 14 297 39 424 16
80 78 250 131 354 l48 97 -65 54 c-123 103 -254 256 -353 415 -31 50 -77 121
-102 159 l-46 68 -6 -63z m371 -1061 c-3 -8 -6 -5 -6 6 -1 11 2 17 5 13 3 -3
4 -12 1 -19z m-11 -55 c-11 -11 -17 4 -9 23 7 18 8 18 11 1 2 -10 1 -21 -2
-24z m-6 -33 c0 -5 -5 -10 -11 -10 -5 0 -7 5 -4 10 3 6 8 10 11 10 2 0 4 -4 4
-10z m-400 -361 c0 -6 -4 -7 -10 -4 -5 3 -10 11 -10 16 0 6 5 7 10 4 6 -3 10
-11 10 -16z m315 11 c-3 -5 -10 -10 -16 -10 -5 0 -9 5 -9 10 0 6 7 10 16 10 8
0 12 -4 9 -10z m-385 -20 c0 -5 -4 -10 -10 -10 -5 0 -10 5 -10 10 0 6 5 10 10
10 6 0 10 -4 10 -10z m140 6 c0 -3 -4 -8 -10 -11 -5 -3 -10 -1 -10 4 0 6 5 11
10 11 6 0 10 -2 10 -4z m45 -26 c3 -5 1 -10 -4 -10 -6 0 -11 5 -11 10 0 6 2
10 4 10 3 0 8 -4 11 -10z m-71 -39 c3 -5 -1 -11 -9 -14 -9 -4 -12 -1 -8 9 6
16 10 17 17 5z m-314 -21 c0 -5 -5 -10 -11 -10 -5 0 -7 5 -4 10 3 6 8 10 11
10 2 0 4 -4 4 -10z m250 0 c0 -5 -5 -10 -11 -10 -5 0 -7 5 -4 10 3 6 8 10 11
10 2 0 4 -4 4 -10z m-596 -9 c3 -5 -1 -11 -9 -14 -9 -4 -12 -1 -8 9 6 16 10
17 17 5z m-224 -11 c0 -5 -5 -10 -11 -10 -5 0 -7 5 -4 10 3 6 8 10 11 10 2 0
4 -4 4 -10z m685 0 c3 -5 1 -10 -4 -10 -6 0 -11 5 -11 10 0 6 2 10 4 10 3 0 8
-4 11 -10z m422 -15 c-8 -20 -47 -20 -47 1 0 10 6 14 15 11 8 -4 17 -2 21 4 9
15 18 3 11 -16z m113 13 c0 -4 -7 -8 -15 -8 -8 0 -15 4 -15 8 0 5 7 9 15 9 8
0 15 -4 15 -9z"/>
<path d="M1826 6816 c-122 -393 -179 -820 -157 -1177 7 -103 13 -196 15 -206
2 -10 7 -45 11 -78 21 -177 90 -456 172 -695 44 -126 136 -317 231 -480 l91
-155 121 -3 c67 -1 119 1 117 5 -7 11 1211 16 1308 5 51 -6 81 -5 84 1 12 31
79 88 148 124 93 50 138 87 153 126 5 16 14 25 20 22 5 -3 10 -2 10 3 0 5 -10
12 -22 16 -24 6 -1848 9 -1848 2 0 -2 14 -33 30 -69 17 -37 30 -69 30 -73 0
-17 -83 100 -129 183 -280 498 -415 1193 -341 1751 25 185 45 284 110 542 28
110 49 204 46 209 -3 5 -25 6 -48 4 -24 -3 -61 1 -85 10 l-42 14 -25 -81z"/>
<path d="M7279 5743 l-485 -3 -15 -95 c-14 -90 -13 -95 3 -89 25 8 1392 7
1417 -1 18 -6 20 0 23 87 2 51 3 94 3 94 0 6 -541 10 -946 7z m-466 -33 c-3
-11 -7 -20 -9 -20 -2 0 -4 9 -4 20 0 11 4 20 9 20 5 0 7 -9 4 -20z m77 -20 c0
-5 -5 -10 -11 -10 -5 0 -7 5 -4 10 3 6 8 10 11 10 2 0 4 -4 4 -10z m224 -6
c13 -34 7 -45 -14 -24 -11 11 -20 25 -20 30 0 16 27 11 34 -6z m156 -11 c0
-19 -13 -9 -16 12 -1 8 2 13 7 9 5 -3 9 -12 9 -21z m-463 -25 c-3 -7 -5 -2 -5
12 0 14 2 19 5 13 2 -7 2 -19 0 -25z m243 20 c0 -16 -23 -19 -37 -5 -14 13
-13 15 11 14 14 -1 26 -5 26 -9z m420 2 c0 -5 -4 -10 -10 -10 -5 0 -10 5 -10
10 0 6 5 10 10 10 6 0 10 -4 10 -10z m214 -16 c3 -8 2 -12 -4 -9 -6 3 -10 10
-10 16 0 14 7 11 14 -7z m-250 -9 c3 -8 1 -15 -4 -15 -6 0 -10 7 -10 15 0 8 2
15 4 15 2 0 6 -7 10 -15z m-337 -10 c0 -7 -6 -12 -13 -12 -7 0 -15 5 -17 12
-3 6 3 11 12 11 10 0 18 -5 18 -11z m-82 -5 c3 -5 1 -10 -4 -10 -6 0 -11 5
-11 10 0 6 2 10 4 10 3 0 8 -4 11 -10z m355 -10 c0 -5 -4 -10 -10 -10 -5 0
-10 5 -10 10 0 6 5 10 10 10 6 0 10 -4 10 -10z"/>
<path d="M1914 5648 c4 -51 8 -92 9 -93 1 0 325 1 720 3 l718 2 -7 23 c-4 12
-13 51 -20 87 -10 57 -12 60 -13 25 -1 -29 -4 -36 -10 -25 -6 8 -7 27 -4 42
l6 28 -703 0 -702 0 6 -92z m1026 41 c0 -6 -4 -7 -10 -4 -5 3 -10 11 -10 16 0
6 5 7 10 4 6 -3 10 -11 10 -16z m-225 1 c-3 -5 -11 -10 -16 -10 -6 0 -7 5 -4
10 3 6 11 10 16 10 6 0 7 -4 4 -10z m-35 -10 c0 -5 -2 -10 -4 -10 -3 0 -8 5
-11 10 -3 6 -1 10 4 10 6 0 11 -4 11 -10z m-459 -22 c11 -21 11 -22 -4 -9 -10
7 -17 17 -17 22 0 15 9 10 21 -13z m49 12 c8 -5 11 -10 5 -10 -5 0 -17 5 -25
10 -8 5 -10 10 -5 10 6 0 17 -5 25 -10z m650 0 c0 -5 -7 -10 -15 -10 -8 0 -15
5 -15 10 0 6 7 10 15 10 8 0 15 -4 15 -10z m-770 -14 c0 -9 -9 -14 -21 -13
-19 1 -19 2 -3 14 22 16 24 16 24 -1z m25 4 c3 -5 1 -10 -4 -10 -6 0 -11 5
-11 10 0 6 2 10 4 10 3 0 8 -4 11 -10z m940 -9 c-3 -6 -13 -11 -21 -11 -8 0
-12 5 -9 10 4 6 11 8 16 5 5 -4 9 -1 9 6 0 7 3 10 6 6 3 -3 3 -10 -1 -16z
m-268 -7 c-3 -3 -12 -4 -19 -1 -8 3 -5 6 6 6 11 1 17 -2 13 -5z"/>
<path d="M2602 5453 l-683 -3 6 -33 c3 -17 9 -54 13 -80 4 -26 10 -48 15 -47
4 0 340 0 746 0 l739 0 -25 68 c-37 100 -35 97 -84 97 -24 0 -351 -1 -727 -2z"/>
<path d="M6890 5453 l-155 -3 -23 -70 c-12 -39 -25 -76 -27 -82 -4 -10 148
-12 743 -10 l749 2 12 70 c6 38 11 76 11 84 0 13 -70 15 -577 13 -318 -1 -648
-3 -733 -4z m1183 -150 c-7 -2 -19 -2 -25 0 -7 3 -2 5 12 5 14 0 19 -2 13 -5z"/>
<path d="M6898 5171 l-268 -6 -31 -60 c-17 -33 -38 -68 -46 -77 -15 -17 23
-18 780 -18 758 0 797 1 797 18 0 15 17 84 31 130 3 9 -101 13 -496 15 -275 2
-620 1 -767 -2z"/>
<path d="M1973 5153 c3 -10 11 -49 18 -87 l12 -69 789 5 c434 3 791 8 794 11
4 3 -5 21 -19 39 -14 18 -34 52 -46 76 l-21 42 -766 0 c-724 0 -765 -1 -761
-17z"/>
<path d="M2112 4893 c-46 -4 -53 -7 -47 -21 4 -9 14 -47 23 -85 l17 -67 815 6
c448 3 825 7 837 10 21 4 17 11 -44 84 l-66 80 -741 -2 c-408 -1 -765 -3 -794
-5z"/>
<path d="M6463 4879 c-10 -11 -44 -48 -75 -81 -32 -34 -58 -63 -58 -65 0 -1
382 -3 850 -3 l849 0 11 43 c5 23 18 59 29 79 10 20 16 39 13 42 -3 4 -365 6
-804 6 -796 0 -798 0 -815 -21z"/>
<path d="M6178 4555 c-33 -38 -73 -80 -89 -93 -16 -13 -29 -26 -29 -30 0 -9
1835 -6 1849 3 6 3 11 13 11 22 0 9 16 47 35 85 25 49 32 70 23 73 -7 3 -402
6 -877 7 l-864 3 -59 -70z"/>
<path d="M2150 4615 c0 -3 18 -44 39 -93 l40 -87 920 -3 c507 -1 921 1 921 5
0 4 -39 47 -87 95 l-88 88 -872 0 c-480 0 -873 -2 -873 -5z"/>
<path d="M5983 4323 c-21 -8 -14 -26 26 -68 40 -42 55 -52 124 -87 82 -41 132
-77 150 -108 l19 -31 671 3 c483 3 678 8 692 16 37 21 99 108 146 206 16 33
29 63 29 68 0 8 -1836 10 -1857 1z"/>
</g>
</svg>
